<svg width="772" height="273" viewBox="0 0 772 273" fill="none" xmlns="http://www.w3.org/2000/svg">
<path d="M771.523 32.4521L667.645 136.331L771.522 240.209L739.07 272.661L635.192 168.783L531.314 272.661L498.861 240.209L602.739 136.331L498.861 32.4521L531.313 0L635.192 103.878L739.07 0L771.523 32.4521ZM265.888 3.23535L265.994 157.916C266.113 186.882 274.1 197.38 285.191 207.732C297.17 219.317 316.288 224.602 337.938 224.642C359.49 224.533 379.068 219.399 391.031 207.781C402.083 197.469 410.572 186.958 410.577 158.115L410.446 3.31055L461.284 3.34668L461.289 154.233C461.374 203.446 446.044 225.924 425.096 244.653C405.821 261.807 375.015 271.859 337.75 271.76C300.483 271.661 270.181 261.688 250.858 244.532C229.883 225.774 215.114 203.325 215.08 154.063L214.977 3.17578L265.888 3.23535ZM51.0352 221.462L200.287 220.822L200.088 267.169L0 268.028L1.13477 3.49707L51.9707 3.2793L51.0352 221.462Z" fill="white"/>
</svg>
